<?xml version="1.0" standalone="no"?>
<!DOCTYPE svg PUBLIC "-//W3C//DTD SVG 20010904//EN"
 "http://www.w3.org/TR/2001/REC-SVG-20010904/DTD/svg10.dtd">
<svg version="1.0" xmlns="http://www.w3.org/2000/svg"
 width="500.000000pt" height="500.000000pt" viewBox="0 0 500.000000 500.000000"
 preserveAspectRatio="xMidYMid meet">

<g transform="translate(0.000000,500.000000) scale(0.100000,-0.100000)"
fill="#000000" stroke="none">
<path d="M2208 4695 c-345 -49 -665 -168 -943 -352 -874 -578 -1228 -1621
-885 -2609 70 -202 211 -455 348 -628 125 -158 325 -346 499 -468 540 -382
1276 -497 1922 -302 681 207 1249 748 1473 1404 197 579 163 1179 -97 1708
-115 235 -233 403 -408 581 -338 345 -758 567 -1232 652 -155 28 -527 36 -677
14z m602 -743 c293 -69 532 -201 740 -411 211 -213 336 -442 403 -741 29 -132
31 -452 3 -580 -53 -244 -160 -477 -298 -647 -29 -36 -195 -202 -229 -229
-170 -138 -416 -252 -649 -301 -120 -25 -439 -25 -560 0 -292 62 -553 200
-750 396 -115 115 -132 135 -200 236 -106 156 -183 342 -226 545 -26 119 -26
438 -1 562 60 296 196 549 411 763 247 245 509 374 871 429 17 2 113 3 215 1
140 -3 206 -8 270 -23z"/>
<path d="M2080 3341 c-5 -11 -10 -58 -10 -104 l0 -85 -60 -4 c-98 -7 -154 -64
-166 -169 l-7 -59 -92 0 c-70 0 -96 -4 -105 -15 -26 -31 5 -44 108 -47 l97 -3
0 -60 0 -60 -98 -5 c-99 -5 -122 -15 -110 -47 7 -17 32 -22 127 -25 l79 -3 1
-60 1 -60 -97 -3 c-69 -2 -99 -7 -108 -17 -26 -31 5 -44 108 -47 l96 -3 0 -65
0 -65 -99 -3 c-103 -3 -122 -11 -104 -44 8 -14 26 -18 107 -20 l97 -3 0 -60 0
-60 -97 -3 c-83 -2 -99 -5 -108 -21 -16 -31 8 -40 111 -43 l94 -3 6 -56 c11
-98 68 -149 168 -149 l51 0 0 -88 c0 -100 15 -136 47 -116 15 9 18 27 21 108
l3 96 64 0 64 0 3 -102 c3 -102 3 -103 28 -103 25 0 25 1 30 100 l5 100 65 0
65 0 3 -95 c2 -52 7 -99 11 -103 5 -5 18 -6 30 -2 19 6 21 14 21 106 l0 99 65
0 64 0 3 -96 c2 -79 6 -99 20 -108 30 -19 40 6 41 105 l2 94 65 0 65 0 3 -97
c3 -99 10 -116 47 -102 12 5 15 26 15 105 l0 99 55 0 c101 0 165 58 173 156
l4 54 99 0 c101 0 115 5 104 40 -6 18 -15 20 -106 20 l-99 0 0 65 0 64 96 3
c79 2 99 6 108 20 19 30 -6 40 -105 41 l-94 2 -3 68 -3 67 100 0 c103 0 117 5
106 40 -6 18 -15 20 -106 20 l-99 0 0 65 0 65 86 0 c88 0 124 10 124 35 0 25
-36 35 -124 35 l-86 0 0 65 0 65 99 0 c79 0 100 3 105 15 14 38 -3 45 -105 45
l-99 0 0 48 c0 106 -76 182 -182 182 l-48 0 0 99 c0 91 -2 100 -20 106 -35 11
-40 -3 -40 -106 l0 -100 -67 3 -68 3 -2 94 c-1 99 -11 124 -41 105 -14 -9 -18
-29 -20 -108 l-3 -96 -64 0 -65 0 0 94 c0 97 -11 125 -45 112 -12 -4 -15 -25
-15 -106 l0 -100 -70 0 -70 0 0 100 c0 81 -3 102 -15 106 -34 13 -45 -15 -45
-112 l0 -94 -65 0 -65 0 0 93 c0 92 -8 117 -37 117 -7 0 -17 -9 -23 -19z m957
-295 l28 -24 0 -512 0 -512 -28 -24 -28 -24 -515 0 -515 0 -24 25 -25 24 0
509 c0 470 1 510 18 529 9 11 24 22 32 26 8 3 243 6 522 6 l507 1 28 -24z"/>
<path d="M1985 3048 c-46 -25 -45 -16 -45 -540 l0 -499 25 -24 24 -25 509 0
c497 0 509 0 530 20 12 11 24 31 27 43 3 12 4 240 3 505 l-3 484 -28 24 -28
24 -497 0 c-340 -1 -503 -4 -517 -12z m979 -90 c14 -20 16 -80 16 -454 0 -425
0 -431 -21 -450 -20 -18 -42 -19 -461 -19 l-440 0 -24 28 -25 29 3 423 c3 400
4 424 22 444 19 21 24 21 467 21 l448 0 15 -22z"/>
<path d="M2060 2928 c-19 -21 -20 -33 -20 -419 l0 -396 26 -27 27 -26 402 0
c392 0 403 1 429 21 l26 20 0 405 c0 391 -1 405 -20 424 -19 19 -33 20 -435
20 -413 0 -414 0 -435 -22z m500 -178 l0 -180 179 0 179 0 4 -61 c1 -33 1 -63
-1 -65 -2 -2 -85 -4 -183 -4 l-178 0 0 -175 0 -175 -65 0 -65 0 0 175 0 175
-180 0 -180 0 0 65 0 65 180 0 180 0 0 173 c0 96 3 177 7 180 3 4 33 7 65 7
l58 0 0 -180z m-302 67 c3 -22 8 -27 33 -27 24 0 29 -4 29 -25 0 -21 -5 -25
-30 -25 -27 0 -30 -3 -30 -30 0 -25 -4 -30 -25 -30 -21 0 -25 5 -25 30 0 27
-3 30 -30 30 -25 0 -30 4 -30 25 0 21 5 25 30 25 25 0 30 4 30 23 0 29 6 36
28 33 10 -2 18 -14 20 -29z m532 -2 c0 -20 5 -25 25 -25 20 0 25 -5 25 -25 0
-20 -5 -25 -24 -25 -19 0 -25 -6 -28 -27 -2 -22 -8 -28 -28 -28 -20 0 -26 6
-28 28 -3 21 -9 27 -28 27 -19 0 -24 5 -24 25 0 20 5 25 25 25 20 0 25 5 25
25 0 21 5 25 30 25 25 0 30 -4 30 -25z m-530 -510 c0 -21 5 -25 30 -25 25 0
30 -4 30 -24 0 -19 -6 -25 -27 -28 -22 -2 -29 -9 -31 -30 -3 -22 -9 -28 -27
-28 -18 0 -24 6 -27 28 -2 21 -9 28 -30 30 -22 3 -28 9 -28 28 0 20 5 24 30
24 25 0 30 4 30 25 0 20 5 25 25 25 20 0 25 -5 25 -25z m530 0 c0 -20 5 -25
25 -25 20 0 25 -5 25 -25 0 -20 -5 -25 -24 -25 -19 0 -25 -6 -28 -27 -2 -22
-8 -28 -28 -28 -20 0 -26 6 -28 28 -3 23 -8 27 -33 27 -26 0 -30 3 -27 23 2
16 11 23 31 25 21 3 27 9 27 28 0 20 5 24 30 24 25 0 30 -4 30 -25z"/>
</g>
</svg>
