<?xml version="1.0" encoding="UTF-8"?>
<svg version="1.1" xmlns="http://www.w3.org/2000/svg" width="500" height="500">
<path d="M0 0 C1.30535706 0.00031723 1.30535706 0.00031723 2.63708496 0.00064087 C17.95200132 0.03756832 32.65952476 1.23467315 47.6875 4.375 C48.59290527 4.56223633 49.49831055 4.74947266 50.43115234 4.94238281 C56.25519586 6.18831712 61.97936358 7.67769876 67.6875 9.375 C68.46512695 9.60493652 69.24275391 9.83487305 70.04394531 10.07177734 C91.93271757 16.73220516 113.08307151 27.06603856 131.6875 40.375 C132.75613281 41.13296875 133.82476562 41.8909375 134.92578125 42.671875 C137.89888184 44.84675014 140.80271224 47.08448639 143.6875 49.375 C145.15123047 50.53128906 145.15123047 50.53128906 146.64453125 51.7109375 C161.56586884 63.78141183 175.61427541 77.66501884 186.6875 93.375 C187.40728027 94.39279541 187.40728027 94.39279541 188.14160156 95.43115234 C224.8599799 147.87083764 239.06236687 210.03668519 228.19970703 273.21191406 C221.3729913 309.92272546 205.90495297 344.1741018 182.6875 373.375 C181.54474609 374.82326172 181.54474609 374.82326172 180.37890625 376.30078125 C176.52926375 381.0982278 172.59357387 385.63073477 168.1640625 389.8984375 C166.527942 391.47266332 166.527942 391.47266332 164.75 393.875 C162.43945253 396.6756636 159.9401168 398.90511573 157.17578125 401.25 C155.35607546 402.80403446 153.56557748 404.392452 151.79296875 406 C121.49215955 433.26192664 83.31489496 450.11212008 43.6875 458.375 C42.85943848 458.55289062 42.03137695 458.73078125 41.17822266 458.9140625 C-16.4436854 470.68841549 -79.460091 455.27494956 -127.97265625 423.34765625 C-138.89438933 415.96797698 -148.81251183 407.49848088 -158.3125 398.375 C-158.9612207 397.75882812 -159.60994141 397.14265625 -160.27832031 396.5078125 C-203.5171591 355.25535192 -228.75347868 297.76669101 -230.53515625 238.03125 C-231.73681636 173.79152921 -208.05784677 114.75755998 -163.67578125 68.57421875 C-155.4050039 60.07313394 -146.92148479 52.32818268 -137.3125 45.375 C-136.69439453 44.92318359 -136.07628906 44.47136719 -135.43945312 44.00585938 C-125.20507853 36.57684634 -114.52299857 30.21463248 -103.3125 24.375 C-102.31476563 23.8476123 -102.31476563 23.8476123 -101.296875 23.30957031 C-70.22328869 7.07362146 -34.85370519 -0.07875461 0 0 Z " fill="#000000" transform="translate(249.3125,18.625)"/>
<path d="M0 0 C1.44632812 1.12148437 1.44632812 1.12148437 2.921875 2.265625 C28.9991494 22.86811251 44.94010997 50.39697183 54 82 C54.62044189 82.01458252 55.24088379 82.02916504 55.88012695 82.04418945 C58.69154633 82.11866588 61.50177749 82.21532564 64.3125 82.3125 C65.28896484 82.33505859 66.26542969 82.35761719 67.27148438 82.38085938 C68.20927734 82.41630859 69.14707031 82.45175781 70.11328125 82.48828125 C70.97735596 82.51446533 71.84143066 82.54064941 72.73168945 82.56762695 C75.44599246 83.08501266 76.36104145 83.80619081 78 86 C78.3984375 88.62890625 78.3984375 88.62890625 78.375 91.5625 C78.38273437 92.53316406 78.39046875 93.50382812 78.3984375 94.50390625 C78.26695312 95.32761719 78.13546875 96.15132813 78 97 C74.89914429 99.06723714 74.27068319 99.24497423 70.76953125 99.1953125 C69.56586914 99.18564453 69.56586914 99.18564453 68.33789062 99.17578125 C67.08782227 99.15064453 67.08782227 99.15064453 65.8125 99.125 C64.96751953 99.11597656 64.12253906 99.10695312 63.25195312 99.09765625 C61.16784757 99.07410703 59.08388783 99.03823647 57 99 C57 102.63 57 106.26 57 110 C55.64205322 110.02505615 54.28410645 110.0501123 52.88500977 110.07592773 C47.86618956 110.16981297 42.84751391 110.27007904 37.82885742 110.37231445 C35.65311047 110.41573507 33.47732786 110.45740471 31.30151367 110.49731445 C28.18136832 110.55484502 25.06140367 110.61858823 21.94140625 110.68359375 C20.47266808 110.70866249 20.47266808 110.70866249 18.97425842 110.73423767 C18.07340012 110.75418289 17.17254181 110.77412811 16.24438477 110.79467773 C15.44718521 110.81022202 14.64998566 110.8257663 13.82862854 110.84178162 C11.98148618 110.80400665 11.98148618 110.80400665 11 112 C10.90148829 113.83115883 10.87027371 115.66619933 10.875 117.5 C10.87113281 119.00046875 10.87113281 119.00046875 10.8671875 120.53125 C10.72129618 122.94399622 10.72129618 122.94399622 12 124 C13.41117702 124.12209924 14.82820459 124.17770872 16.24438477 124.20532227 C17.14524307 124.22526749 18.04610138 124.24521271 18.97425842 124.26576233 C19.95341721 124.28247482 20.93257599 124.29918732 21.94140625 124.31640625 C23.43751686 124.3475779 23.43751686 124.3475779 24.96385193 124.37937927 C28.16332843 124.44498637 31.36288982 124.50381134 34.5625 124.5625 C36.72592039 124.60567462 38.88933206 124.64928855 41.05273438 124.69335938 C46.36840164 124.80067909 51.68415464 124.90191469 57 125 C56.67 128.63 56.34 132.26 56 136 C54.00851929 136.03758423 54.00851929 136.03758423 51.97680664 136.07592773 C47.06980055 136.16981519 42.16294224 136.27008073 37.25610352 136.37231445 C35.12885993 136.41573423 33.0015799 136.45740393 30.87426758 136.49731445 C27.82361849 136.55484707 24.77315411 136.61858967 21.72265625 136.68359375 C20.28672874 136.70866249 20.28672874 136.70866249 18.8217926 136.73423767 C17.94095505 136.75418289 17.06011749 136.77412811 16.15258789 136.79467773 C15.37315323 136.81022202 14.59371857 136.8257663 13.79066467 136.84178162 C11.97706647 136.80889119 11.97706647 136.80889119 11 138 C10.90126184 139.99799572 10.87028201 141.99957158 10.875 144 C10.87113281 145.6396875 10.87113281 145.6396875 10.8671875 147.3125 C10.69452245 149.91830354 10.69452245 149.91830354 12 151 C15.02807044 151.1603556 18.03585454 151.25960448 21.06640625 151.31640625 C21.97502914 151.33718735 22.88365204 151.35796844 23.81980896 151.37937927 C26.73395946 151.44497672 29.64820304 151.5038068 32.5625 151.5625 C34.53321291 151.60567554 36.50391626 151.64928951 38.47460938 151.69335938 C43.31630988 151.80066843 48.15810437 151.90190675 53 152 C52.68188026 153.43641377 52.36346346 154.87276175 52.04492188 156.30908203 C51.77899231 157.50889206 51.77899231 157.50889206 51.50769043 158.73294067 C46.48413006 181.16533 33.45021255 202.20365982 17.43847656 218.53076172 C15.95157184 220.04946379 14.48743287 221.58813458 13.0234375 223.12890625 C6.84668358 229.55365029 0.47321572 235.08313945 -7 240 C-8.00675781 240.66644531 -9.01351562 241.33289063 -10.05078125 242.01953125 C-18.06066535 247.13451218 -26.31668091 251.18049996 -35 255 C-36.15757812 255.51949219 -37.31515625 256.03898437 -38.5078125 256.57421875 C-41.98011767 257.99188249 -45.37458586 259.04594365 -49 260 C-50.7325 260.4640625 -50.7325 260.4640625 -52.5 260.9375 C-53.9990133 261.29581991 -55.49918311 261.64931111 -57 262 C-58.03060547 262.2573291 -59.06121094 262.5146582 -60.12304688 262.77978516 C-70.06276723 265.05145128 -79.64824773 265.46384224 -89.82470703 265.39111328 C-92.49693828 265.37501844 -95.16765776 265.39105871 -97.83984375 265.41015625 C-111.72240711 265.42851932 -124.54464453 263.6716937 -137.6875 258.9375 C-138.51781738 258.64077393 -139.34813477 258.34404785 -140.20361328 258.03833008 C-160.98386972 250.3556126 -178.13964993 239.29777285 -194 224 C-195.37091797 222.74123047 -195.37091797 222.74123047 -196.76953125 221.45703125 C-213.61690485 205.52553776 -225.66791797 183.86928364 -233 162 C-233.36996094 160.97777344 -233.73992187 159.95554687 -234.12109375 158.90234375 C-235 156 -235 156 -235 152 C-235.62044189 152.02094727 -236.24088379 152.04189453 -236.88012695 152.06347656 C-239.69075318 152.14661406 -242.50112096 152.19865061 -245.3125 152.25 C-246.28896484 152.28351563 -247.26542969 152.31703125 -248.27148438 152.3515625 C-249.20927734 152.36445313 -250.14707031 152.37734375 -251.11328125 152.390625 C-251.97735596 152.41157227 -252.84143066 152.43251953 -253.73168945 152.45410156 C-256 152 -256 152 -257.78051758 150.11645508 C-259.17978906 147.6879697 -259.40327665 146.22274999 -259.375 143.4375 C-259.38273437 142.67308594 -259.39046875 141.90867187 -259.3984375 141.12109375 C-258.89556304 138.44402676 -258.11299347 137.68327733 -256 136 C-254.00708008 135.65942383 -254.00708008 135.65942383 -251.76953125 135.70703125 C-250.56586914 135.7215332 -250.56586914 135.7215332 -249.33789062 135.73632812 C-248.50451172 135.76146484 -247.67113281 135.78660156 -246.8125 135.8125 C-245.96751953 135.82603516 -245.12253906 135.83957031 -244.25195312 135.85351562 C-242.16769616 135.88884201 -240.08376723 135.94264861 -238 136 C-238.33 132.37 -238.66 128.74 -239 125 C-237.64205322 124.97494385 -236.28410645 124.9498877 -234.88500977 124.92407227 C-229.86618956 124.83018703 -224.84751391 124.72992096 -219.82885742 124.62768555 C-217.65311047 124.58426493 -215.47732786 124.54259529 -213.30151367 124.50268555 C-210.18136832 124.44515498 -207.06140367 124.38141177 -203.94140625 124.31640625 C-202.47266808 124.29133751 -202.47266808 124.29133751 -200.97425842 124.26576233 C-200.07340012 124.24581711 -199.17254181 124.22587189 -198.24438477 124.20532227 C-197.44718521 124.18977798 -196.64998566 124.1742337 -195.82862854 124.15821838 C-193.98148618 124.19599335 -193.98148618 124.19599335 -193 123 C-192.90148829 121.16884117 -192.87027371 119.33380067 -192.875 117.5 C-192.87242187 116.4996875 -192.86984375 115.499375 -192.8671875 114.46875 C-192.72129618 112.05600378 -192.72129618 112.05600378 -194 111 C-195.41117702 110.87790076 -196.82820459 110.82229128 -198.24438477 110.79467773 C-199.14524307 110.77473251 -200.04610138 110.75478729 -200.97425842 110.73423767 C-201.95341721 110.71752518 -202.93257599 110.70081268 -203.94140625 110.68359375 C-204.93881332 110.66281265 -205.9362204 110.64203156 -206.96385193 110.62062073 C-210.16332843 110.55501363 -213.36288982 110.49618866 -216.5625 110.4375 C-218.72592039 110.39432538 -220.88933206 110.35071145 -223.05273438 110.30664062 C-228.36840164 110.19932091 -233.68415464 110.09808531 -239 110 C-239 106.37 -239 102.74 -239 99 C-240.19238281 99.03480469 -241.38476562 99.06960937 -242.61328125 99.10546875 C-244.17967342 99.13360753 -245.74608081 99.1609076 -247.3125 99.1875 C-248.09818359 99.21263672 -248.88386719 99.23777344 -249.69335938 99.26367188 C-250.8293457 99.27817383 -250.8293457 99.27817383 -251.98828125 99.29296875 C-253.03302612 99.31653442 -253.03302612 99.31653442 -254.09887695 99.34057617 C-256.59109344 98.89410873 -257.45992114 97.97032124 -259 96 C-259.3984375 93.625 -259.3984375 93.625 -259.375 91 C-259.38273437 90.13375 -259.39046875 89.2675 -259.3984375 88.375 C-258.91438454 85.48966469 -258.27773058 84.78359807 -256 83 C-253.82348633 82.56762695 -253.82348633 82.56762695 -251.33203125 82.48828125 C-250.43935547 82.45283203 -249.54667969 82.41738281 -248.62695312 82.38085938 C-247.69818359 82.35830078 -246.76941406 82.33574219 -245.8125 82.3125 C-244.87212891 82.27833984 -243.93175781 82.24417969 -242.96289062 82.20898438 C-240.64204607 82.12651782 -238.32157852 82.05736597 -236 82 C-235.69707031 80.97261719 -235.39414063 79.94523437 -235.08203125 78.88671875 C-232.59708254 70.60556198 -229.83047381 62.77133592 -226 55 C-225.52175781 53.948125 -225.04351562 52.89625 -224.55078125 51.8125 C-208.17553882 16.92094227 -176.97726433 -9.67661358 -141.10620117 -22.93359375 C-133.8592907 -25.50189812 -126.51676643 -27.40623097 -119 -29 C-117.39705078 -29.3403125 -117.39705078 -29.3403125 -115.76171875 -29.6875 C-75.47557431 -36.77077814 -31.71181058 -25.81999878 0 0 Z " fill="#F8F8F8" transform="translate(341,131)"/>
<path d="M0 0 C6.6 0 13.2 0 20 0 C38.15775891 40.17428644 38.15775891 40.17428644 43.625 52.875 C43.98392334 53.70346436 44.34284668 54.53192871 44.71264648 55.38549805 C47 60.75082997 47 60.75082997 47 63 C40.73 63 34.46 63 28 63 C24 55 24 55 24 51 C14.76 51.33 5.52 51.66 -4 52 C-5.32 55.63 -6.64 59.26 -8 63 C-14.27 63 -20.54 63 -27 63 C-24.99948968 56.99846903 -22.95845403 51.33071031 -20.3828125 45.59765625 C-19.87426224 44.45374672 -19.87426224 44.45374672 -19.35543823 43.28672791 C-18.64308585 41.68676379 -17.92871699 40.08769606 -17.21240234 38.48950195 C-16.13013264 36.07395568 -15.05479939 33.6554142 -13.98046875 31.23632812 C-7.67941918 17.09274628 -7.67941918 17.09274628 -4.10107422 10.33374023 C-2.51975929 6.98212396 -1.30123754 3.46996677 0 0 Z " fill="#070707" transform="translate(187,215)"/>
<path d="M0 0 C6.6 0 13.2 0 20 0 C22.55999078 5.65159254 25.11957771 11.30336486 27.67822266 16.95556641 C28.54486248 18.8697295 29.41171689 20.78379546 30.27880859 22.69775391 C32.78617542 28.23255553 35.28811693 33.76975958 37.78466797 39.30944824 C38.98795838 41.97334176 40.19870903 44.63375324 41.41015625 47.29394531 C42.1487067 48.9276127 42.88700126 50.5613958 43.625 52.1953125 C43.96797119 52.94328094 44.31094238 53.69124939 44.66430664 54.46188354 C47 59.65901421 47 59.65901421 47 63 C40.73 63 34.46 63 28 63 C24 53.25 24 53.25 24 51 C14.76 51 5.52 51 -4 51 C-4.99 53.97 -5.98 56.94 -7 60 C-7.33 60.99 -7.66 61.98 -8 63 C-14.27 63 -20.54 63 -27 63 C-23.62730455 52.88191365 -23.62730455 52.88191365 -21.546875 48.43359375 C-21.09586426 47.46131836 -20.64485352 46.48904297 -20.18017578 45.48730469 C-19.70821777 44.48086914 -19.23625977 43.47443359 -18.75 42.4375 C-17.76200748 40.3064591 -16.7750295 38.17494755 -15.7890625 36.04296875 C-15.31114258 35.01091309 -14.83322266 33.97885742 -14.34082031 32.91552734 C-9.99139466 23.45798162 -5.90597519 13.88405892 -1.9453125 4.2578125 C-1.34268992 2.81849081 -0.69782532 1.39565064 0 0 Z " fill="#070707" transform="translate(293,215)"/>
<path d="M0 0 C5.94 0 11.88 0 18 0 C18 21.12 18 42.24 18 64 C12.06 64 6.12 64 0 64 C0 42.88 0 21.76 0 0 Z " fill="#060606" transform="translate(241,214)"/>
<path d="M0 0 C1.27472168 -0.00630432 2.54944336 -0.01260864 3.86279297 -0.019104 C5.26009254 -0.01552433 6.65739087 -0.01142239 8.0546875 -0.00683594 C9.48193427 -0.00818265 10.90918059 -0.01012323 12.33642578 -0.01263428 C15.32914595 -0.01558528 18.32174681 -0.01128876 21.31445312 -0.00195312 C25.15485123 0.00944151 28.99496982 0.00288189 32.83535767 -0.00909805 C35.7829805 -0.01631737 38.73053681 -0.01402842 41.67816162 -0.00884247 C43.09438103 -0.00750616 44.51060644 -0.00915303 45.92681885 -0.01380157 C47.90433643 -0.01886768 49.88187512 -0.00978001 51.859375 0 C53.54909424 0.00238678 53.54909424 0.00238678 55.27294922 0.00482178 C57.9296875 0.25878906 57.9296875 0.25878906 59.9296875 2.25878906 C60.23046875 4.75488281 60.23046875 4.75488281 60.2421875 7.69628906 C60.25894531 8.664375 60.27570313 9.63246094 60.29296875 10.62988281 C59.9296875 13.25878906 59.9296875 13.25878906 58.78773499 14.89982605 C56.117201 16.85303604 54.12549544 16.6329738 50.83764648 16.63110352 C49.58302109 16.63733231 48.32839569 16.6435611 47.03575134 16.64997864 C45.66575727 16.64129148 44.29576707 16.6319736 42.92578125 16.62207031 C41.52238465 16.62155169 40.11898731 16.62206948 38.71559143 16.62358093 C35.77586 16.62349124 32.83640301 16.61306777 29.89672852 16.5949707 C26.12472002 16.57226248 22.3531118 16.57174345 18.58105373 16.57848835 C15.68403044 16.581826 12.78709878 16.5752025 9.89009285 16.56535912 C8.49899843 16.56150485 7.10789382 16.56035984 5.71679497 16.56194496 C3.77528477 16.56231489 1.8337879 16.54823461 -0.10766602 16.53344727 C-1.76621361 16.52653618 -1.76621361 16.52653618 -3.45826721 16.51948547 C-6.0703125 16.25878906 -6.0703125 16.25878906 -8.0703125 14.25878906 C-8.3359375 11.50878906 -8.3359375 11.50878906 -8.3203125 8.25878906 C-8.32546875 7.18628906 -8.330625 6.11378906 -8.3359375 5.00878906 C-7.80761329 -0.46092037 -4.71153028 0.00665518 0 0 Z " fill="#111111" transform="translate(359.0703125,266.7412109375)"/>
<path d="M0 0 C1.27472168 -0.00630432 2.54944336 -0.01260864 3.86279297 -0.019104 C5.26009254 -0.01552433 6.65739087 -0.01142239 8.0546875 -0.00683594 C9.48193427 -0.00818265 10.90918059 -0.01012323 12.33642578 -0.01263428 C15.32914595 -0.01558528 18.32174681 -0.01128876 21.31445312 -0.00195312 C25.15485123 0.00944151 28.99496982 0.00288189 32.83535767 -0.00909805 C35.7829805 -0.01631737 38.73053681 -0.01402842 41.67816162 -0.00884247 C43.09438103 -0.00750616 44.51060644 -0.00915303 45.92681885 -0.01380157 C47.90433643 -0.01886768 49.88187512 -0.00978001 51.859375 0 C53.54909424 0.00238678 53.54909424 0.00238678 55.27294922 0.00482178 C57.9296875 0.25878906 57.9296875 0.25878906 59.9296875 2.25878906 C60.1953125 4.79003906 60.1953125 4.79003906 60.1796875 7.75878906 C60.18742187 9.22832031 60.18742187 9.22832031 60.1953125 10.72753906 C59.9296875 13.25878906 59.9296875 13.25878906 57.9296875 15.25878906 C55.27294922 15.51275635 55.27294922 15.51275635 51.859375 15.51757812 C49.94729248 15.52703461 49.94729248 15.52703461 47.99658203 15.53668213 C46.59928246 15.53310245 45.20198413 15.52900052 43.8046875 15.52441406 C42.37744073 15.52576077 40.95019441 15.52770135 39.52294922 15.5302124 C36.53022905 15.5331634 33.53762819 15.52886688 30.54492188 15.51953125 C26.70452377 15.50813662 22.86440518 15.51469623 19.02401733 15.52667618 C16.0763945 15.53389549 13.12883819 15.53160655 10.18121338 15.52642059 C8.76499397 15.52508429 7.34876856 15.52673116 5.93255615 15.5313797 C3.95503857 15.53644581 1.97749988 15.52735814 0 15.51757812 C-1.68971924 15.51519135 -1.68971924 15.51519135 -3.41357422 15.51275635 C-6.0703125 15.25878906 -6.0703125 15.25878906 -8.0703125 13.25878906 C-8.3359375 10.72753906 -8.3359375 10.72753906 -8.3203125 7.75878906 C-8.32546875 6.77910156 -8.330625 5.79941406 -8.3359375 4.79003906 C-7.77942814 -0.51316778 -4.51499118 0.00637756 0 0 Z " fill="#030303" transform="translate(359.0703125,240.7412109375)"/>
<path d="M0 0 C1.25470093 -0.00630432 2.50940186 -0.01260864 3.80212402 -0.019104 C5.1773289 -0.01552432 6.55253249 -0.01142239 7.92773438 -0.00683594 C9.33256091 -0.00818267 10.73738698 -0.01012326 12.14221191 -0.01263428 C15.08785434 -0.0155852 18.03337556 -0.01128902 20.97900391 -0.00195312 C24.7588694 0.00944151 28.5384509 0.00288185 32.31830597 -0.00909805 C35.219606 -0.01631759 38.12083846 -0.01402832 41.0221405 -0.00884247 C42.41603122 -0.00750622 43.80992804 -0.00915282 45.20381165 -0.01380157 C47.15019619 -0.01886804 49.09660218 -0.00977964 51.04296875 0 C52.15168335 0.00159119 53.26039795 0.00318237 54.40270996 0.00482178 C57.02148438 0.25878906 57.02148438 0.25878906 59.02148438 2.25878906 C59.28710938 4.79003906 59.28710938 4.79003906 59.27148438 7.75878906 C59.27921875 9.22832031 59.27921875 9.22832031 59.28710938 10.72753906 C59.02148438 13.25878906 59.02148438 13.25878906 57.02148438 15.25878906 C54.40270996 15.51948547 54.40270996 15.51948547 51.04296875 15.53344727 C49.78826782 15.54297928 48.53356689 15.55251129 47.24084473 15.56233215 C45.86564099 15.56207076 44.49043724 15.56113388 43.11523438 15.55957031 C41.71040723 15.5634556 40.30558127 15.56778992 38.90075684 15.57255554 C35.95512078 15.5800226 33.00960457 15.57972277 30.06396484 15.57446289 C26.28400742 15.56866369 22.50453926 15.58560716 18.72466278 15.60880756 C15.82335529 15.62351833 12.92216642 15.62442034 10.02082825 15.62129784 C8.626928 15.62181227 7.23302131 15.62707281 5.8391571 15.63710976 C3.89280921 15.64940574 1.94636275 15.64076597 0 15.63110352 C-1.6630719 15.63204765 -1.6630719 15.63204765 -3.35974121 15.63301086 C-4.22393677 15.50951767 -5.08813232 15.38602448 -5.97851562 15.25878906 C-8.14573345 12.00796233 -8.25072581 10.96646753 -8.22851562 7.19628906 C-8.23367187 6.3184375 -8.23882812 5.44058594 -8.24414062 4.53613281 C-7.65252255 -0.53612214 -4.26434041 0.00612002 0 0 Z " fill="#040404" transform="translate(89.978515625,240.7412109375)"/>
<path d="M0 0 C1.77206192 0.00015919 3.54412846 0.00585754 5.31616211 0.01586914 C6.24698105 0.01728409 7.17779999 0.01869904 8.13682556 0.02015686 C11.12241777 0.02577367 14.10793615 0.03832899 17.09350586 0.05102539 C19.11238499 0.05603823 21.13126529 0.06060151 23.15014648 0.06469727 C28.11046158 0.07574856 33.07072118 0.09302444 38.03100586 0.11352539 C40.28785129 5.47353328 41.39364445 9.31130789 41.03100586 15.11352539 C34.80138609 15.1641242 28.57181906 15.19921601 22.34204102 15.22338867 C20.22157816 15.2334629 18.10112925 15.24712272 15.98071289 15.2644043 C12.93754643 15.28859029 9.89456319 15.29999408 6.85131836 15.30883789 C5.42313278 15.32432175 5.42313278 15.32432175 3.96609497 15.34011841 C3.08533295 15.34026947 2.20457092 15.34042053 1.29711914 15.34057617 C0.51990509 15.3450174 -0.25730896 15.34945862 -1.05807495 15.35403442 C-2.96899414 15.11352539 -2.96899414 15.11352539 -4.96899414 13.11352539 C-5.19946289 10.32836914 -5.19946289 10.32836914 -5.15649414 7.05102539 C-5.15004883 5.96692383 -5.14360352 4.88282227 -5.13696289 3.76586914 C-4.86825275 -0.47725148 -4.49306119 0.12851531 0 0 Z " fill="#060606" transform="translate(355.968994140625,214.886474609375)"/>
<path d="M0 0 C5.80240568 -0.02467332 11.60478098 -0.04284724 17.40722656 -0.05493164 C19.38216687 -0.0599681 21.35710343 -0.06679751 23.33203125 -0.07543945 C26.16667605 -0.08753508 29.00127166 -0.0932351 31.8359375 -0.09765625 C32.72243988 -0.10281754 33.60894226 -0.10797882 34.52230835 -0.11329651 C40.77225659 -0.11387171 40.77225659 -0.11387171 43 1 C43.05389087 2.95803507 43.09274217 4.91648909 43.125 6.875 C43.14820313 7.96554688 43.17140625 9.05609375 43.1953125 10.1796875 C43 13 43 13 41 15 C39.08908081 15.24050903 39.08908081 15.24050903 36.73388672 15.22705078 C35.85312469 15.22689972 34.97236267 15.22674866 34.06491089 15.22659302 C33.11278717 15.21627045 32.16066345 15.20594788 31.1796875 15.1953125 C29.71899338 15.19106766 29.71899338 15.19106766 28.22879028 15.18673706 C25.11073651 15.17551913 21.99296732 15.1504117 18.875 15.125 C16.76432706 15.11497228 14.65364962 15.10584607 12.54296875 15.09765625 C7.36188165 15.07557458 2.18096115 15.04208129 -3 15 C-3.36263859 9.1977825 -2.25684543 5.36000789 0 0 Z " fill="#070707" transform="translate(106,215)"/>
<path d="M0 0 C6.22961977 -0.05059881 12.4591868 -0.08569062 18.68896484 -0.10986328 C20.8094277 -0.11993751 22.92987661 -0.13359733 25.05029297 -0.15087891 C28.09345943 -0.17506489 31.13644266 -0.18646869 34.1796875 -0.1953125 C35.13181122 -0.20563507 36.08393494 -0.21595764 37.06491089 -0.22659302 C37.94567291 -0.22674408 38.82643494 -0.22689514 39.73388672 -0.22705078 C40.51110077 -0.231492 41.28831482 -0.23593323 42.08908081 -0.24050903 C44 0 44 0 46 2 C46.23046875 4.78515625 46.23046875 4.78515625 46.1875 8.0625 C46.18105469 9.14660156 46.17460937 10.23070312 46.16796875 11.34765625 C46 14 46 14 45 15 C41.89748799 15.08874135 38.8173188 15.11518455 35.71484375 15.09765625 C34.78402481 15.0962413 33.85320587 15.09482635 32.8941803 15.09336853 C29.90858809 15.08775172 26.92306971 15.0751964 23.9375 15.0625 C21.91862087 15.05748716 19.89974057 15.05292388 17.88085938 15.04882812 C12.92054428 15.03777683 7.96028468 15.02050095 3 15 C2.49564306 13.0636296 1.99666126 11.12585854 1.5 9.1875 C1.2215625 8.10855469 0.943125 7.02960938 0.65625 5.91796875 C0 3 0 3 0 0 Z " fill="#070707" transform="translate(103,267)"/>
<path d="M0 0 C0.86383301 0.02634521 1.72766602 0.05269043 2.61767578 0.07983398 C8.15366764 0.37111091 8.15366764 0.37111091 10.32910156 2.11987305 C12.21155952 4.48784061 12.02383009 6.3297666 12 9.3125 C12.01160156 10.76849609 12.01160156 10.76849609 12.0234375 12.25390625 C11.89195312 13.07761719 11.76046875 13.90132812 11.625 14.75 C8.52414429 16.81723714 7.89568319 16.99497423 4.39453125 16.9453125 C3.59208984 16.93886719 2.78964844 16.93242187 1.96289062 16.92578125 C1.12951172 16.90902344 0.29613281 16.89226562 -0.5625 16.875 C-1.40748047 16.86597656 -2.25246094 16.85695312 -3.12304688 16.84765625 C-5.20715243 16.82410703 -7.29111217 16.78823647 -9.375 16.75 C-9.375 19.39 -9.375 22.03 -9.375 24.75 C-9.705 24.75 -10.035 24.75 -10.375 24.75 C-10.375 22.44 -10.375 20.13 -10.375 17.75 C-24.565 17.75 -38.755 17.75 -53.375 17.75 C-53.375 17.42 -53.375 17.09 -53.375 16.75 C-39.185 16.75 -24.995 16.75 -10.375 16.75 C-11.71272323 9.21500183 -11.71272323 9.21500183 -13.375 1.75 C-26.905 1.75 -40.435 1.75 -54.375 1.75 C-54.375 1.42 -54.375 1.09 -54.375 0.75 C-13.59854833 -0.53574397 -13.59854833 -0.53574397 0 0 Z " fill="#EFEFEF" transform="translate(407.375,213.25)"/>
<path d="M0 0 C1.98045001 0.0534335 3.96091893 0.10617089 5.94140625 0.15820312 C10.71119242 0.28499085 15.4806275 0.42103556 20.25 0.5625 C19.92 1.2225 19.59 1.8825 19.25 2.5625 C-1.045 2.0675 -1.045 2.0675 -21.75 1.5625 C-24.35766644 10.94399168 -24.35766644 10.94399168 -24.75 26.5625 C-10.56 26.5625 3.63 26.5625 18.25 26.5625 C18.25 26.8925 18.25 27.2225 18.25 27.5625 C3.73 27.5625 -10.79 27.5625 -25.75 27.5625 C-25.75 23.9325 -25.75 20.3025 -25.75 16.5625 C-26.94238281 16.59730469 -28.13476562 16.63210937 -29.36328125 16.66796875 C-30.92967342 16.69610753 -32.49608081 16.7234076 -34.0625 16.75 C-34.84818359 16.77513672 -35.63386719 16.80027344 -36.44335938 16.82617188 C-37.20068359 16.83583984 -37.95800781 16.84550781 -38.73828125 16.85546875 C-39.43477783 16.8711792 -40.13127441 16.88688965 -40.84887695 16.90307617 C-43.34109344 16.45660873 -44.20992114 15.53282124 -45.75 13.5625 C-46.1484375 11.1875 -46.1484375 11.1875 -46.125 8.5625 C-46.13273437 7.69625 -46.14046875 6.83 -46.1484375 5.9375 C-45.66728711 3.0694663 -44.9826477 2.36294873 -42.75 0.5625 C-39.76372252 0.15557163 -36.9828402 -0.06631161 -33.984375 -0.15234375 C-32.66152496 -0.20357643 -32.66152496 -0.20357643 -31.31195068 -0.25584412 C-20.86931206 -0.59856084 -10.43959389 -0.31174898 0 0 Z " fill="#E6E6E6" transform="translate(127.75,213.4375)"/>
<path d="M0 0 C0.80244141 0.00966797 1.60488281 0.01933594 2.43164062 0.02929688 C3.26501953 0.05443359 4.09839844 0.07957031 4.95703125 0.10546875 C6.22450195 0.12577148 6.22450195 0.12577148 7.51757812 0.14648438 C9.60183509 0.18181076 11.68576402 0.23561736 13.76953125 0.29296875 C14.75953125 5.24296875 15.74953125 10.19296875 16.76953125 15.29296875 C30.29953125 15.29296875 43.82953125 15.29296875 57.76953125 15.29296875 C57.76953125 15.62296875 57.76953125 15.95296875 57.76953125 16.29296875 C44.56953125 16.29296875 31.36953125 16.29296875 17.76953125 16.29296875 C17.43953125 17.61296875 17.10953125 18.93296875 16.76953125 20.29296875 C16.76953125 18.97296875 16.76953125 17.65296875 16.76953125 16.29296875 C16.14908936 16.31391602 15.52864746 16.33486328 14.8894043 16.35644531 C12.07877807 16.43958281 9.26841029 16.49161936 6.45703125 16.54296875 C5.48056641 16.57648438 4.50410156 16.61 3.49804688 16.64453125 C2.56025391 16.65742188 1.62246094 16.6703125 0.65625 16.68359375 C-0.63986206 16.71501465 -0.63986206 16.71501465 -1.9621582 16.74707031 C-4.23046875 16.29296875 -4.23046875 16.29296875 -6.01098633 14.40942383 C-7.41025781 11.98093845 -7.6337454 10.51571874 -7.60546875 7.73046875 C-7.61320312 6.96605469 -7.6209375 6.20164062 -7.62890625 5.4140625 C-6.80735539 1.04051235 -4.17214612 -0.08876907 0 0 Z " fill="#DBDBDB" transform="translate(89.23046875,266.70703125)"/>
<path d="M0 0 C3.29159316 -0.05790353 6.58305603 -0.09356261 9.875 -0.125 C10.81214844 -0.14175781 11.74929688 -0.15851563 12.71484375 -0.17578125 C13.61074219 -0.18222656 14.50664062 -0.18867188 15.4296875 -0.1953125 C16.25710449 -0.20578613 17.08452148 -0.21625977 17.93701172 -0.22705078 C20 0 20 0 22 2 C22.265625 4.53125 22.265625 4.53125 22.25 7.5 C22.25515625 8.4796875 22.2603125 9.459375 22.265625 10.46875 C22 13 22 13 20 15 C17.75341797 15.22705078 17.75341797 15.22705078 14.9921875 15.1953125 C14.00605469 15.18886719 13.01992188 15.18242187 12.00390625 15.17578125 C10.45509766 15.15064453 10.45509766 15.15064453 8.875 15.125 C7.83472656 15.11597656 6.79445313 15.10695313 5.72265625 15.09765625 C3.14820908 15.07403747 0.57421788 15.04110149 -2 15 C-1.03644647 4.44191344 -1.03644647 4.44191344 0 0 Z " fill="#F1F1F1" transform="translate(397,267)"/>
<path d="M0 0 C3.12522772 -0.05378021 6.2495371 -0.09356575 9.375 -0.125 C10.26445312 -0.14175781 11.15390625 -0.15851563 12.0703125 -0.17578125 C12.92109375 -0.18222656 13.771875 -0.18867188 14.6484375 -0.1953125 C15.82672119 -0.21102295 15.82672119 -0.21102295 17.02880859 -0.22705078 C19 0 19 0 21 2 C21.265625 4.53125 21.265625 4.53125 21.25 7.5 C21.25515625 8.4796875 21.2603125 9.459375 21.265625 10.46875 C21 13 21 13 19 15 C17.02880859 15.22705078 17.02880859 15.22705078 14.6484375 15.1953125 C13.79765625 15.18886719 12.946875 15.18242187 12.0703125 15.17578125 C10.73613281 15.15064453 10.73613281 15.15064453 9.375 15.125 C8.02921875 15.11146484 8.02921875 15.11146484 6.65625 15.09765625 C4.43738678 15.07405132 2.2186603 15.03817962 0 15 C0 10.05 0 5.1 0 0 Z " fill="#F3F3F3" transform="translate(398,241)"/>
<path d="M0 0 C0.74362793 0.01047363 1.48725586 0.02094727 2.25341797 0.03173828 C3.46191406 0.04140625 3.46191406 0.04140625 4.69482422 0.05126953 C5.95746094 0.07640625 5.95746094 0.07640625 7.24560547 0.10205078 C8.51984375 0.11558594 8.51984375 0.11558594 9.81982422 0.12939453 C11.9202043 0.15299431 14.02043991 0.18886595 16.12060547 0.22705078 C16.12060547 5.17705078 16.12060547 10.12705078 16.12060547 15.22705078 C13.16173088 15.30774736 10.20503956 15.36739743 7.24560547 15.41455078 C5.98296875 15.45225586 5.98296875 15.45225586 4.69482422 15.49072266 C3.88916016 15.50039063 3.08349609 15.51005859 2.25341797 15.52001953 C1.50979004 15.53572998 0.76616211 15.55144043 0 15.56762695 C-0.6202002 15.45523682 -1.24040039 15.34284668 -1.87939453 15.22705078 C-4.04661235 11.97622405 -4.15160471 10.93472925 -4.12939453 7.16455078 C-4.13455078 6.28669922 -4.13970703 5.40884766 -4.14501953 4.50439453 C-3.80463666 1.58611197 -3.01152372 0.36382399 0 0 Z " fill="#FAFAFA" transform="translate(85.87939453125,240.77294921875)"/>
<path d="M0 0 C0.66 0 1.32 0 2 0 C2.25394531 0.64066406 2.50789063 1.28132812 2.76953125 1.94140625 C4.37207128 5.96876339 5.97605653 9.9822002 7.75 13.9375 C9 17 9 17 9 20 C3.72 20 -1.56 20 -7 20 C-5.04068712 13.14240492 -2.75665244 6.57678502 0 0 Z " fill="#E2E2E1" transform="translate(302,233)"/>
<path d="M0 0 C3.38235365 2.69005904 4.26461328 5.99395322 5.625 10 C6.05039063 11.2375 6.47578125 12.475 6.9140625 13.75 C7.61009585 15.83309261 8.3054687 17.9164061 9 20 C3.72 20 -1.56 20 -7 20 C-6.27811745 15.66870473 -5.68013675 12.76953679 -4.0625 8.875 C-3.72347656 8.04742187 -3.38445312 7.21984375 -3.03515625 6.3671875 C-2.08954317 4.20476665 -1.07841866 2.09880582 0 0 Z " fill="#E6E6E5" transform="translate(196,233)"/>
<path d="M0 0 C1.98045001 0.0534335 3.96091893 0.10617089 5.94140625 0.15820312 C10.71119242 0.28499085 15.4806275 0.42103556 20.25 0.5625 C19.92 1.2225 19.59 1.8825 19.25 2.5625 C-1.045 2.0675 -1.045 2.0675 -21.75 1.5625 C-22.08 2.2225 -22.41 2.8825 -22.75 3.5625 C-22.75 2.9025 -22.75 2.2425 -22.75 1.5625 C-29.35 1.5625 -35.95 1.5625 -42.75 1.5625 C-42.75 1.2325 -42.75 0.9025 -42.75 0.5625 C-28.45235093 -0.37381832 -14.3173385 -0.42754686 0 0 Z " fill="#7F7F7F" transform="translate(127.75,213.4375)"/>
<path d="M0 0 C0 0.33 0 0.66 0 1 C-6.93 1 -13.86 1 -21 1 C-21.33 1.66 -21.66 2.32 -22 3 C-22 2.34 -22 1.68 -22 1 C-35.53 1 -49.06 1 -63 1 C-63 0.67 -63 0.34 -63 0 C-18.59132431 -1.40027356 -18.59132431 -1.40027356 0 0 Z " fill="#7E7E7E" transform="translate(416,214)"/>
<path d="M0 0 C0.74362793 0.01047363 1.48725586 0.02094727 2.25341797 0.03173828 C3.46191406 0.04140625 3.46191406 0.04140625 4.69482422 0.05126953 C5.95746094 0.07640625 5.95746094 0.07640625 7.24560547 0.10205078 C8.51984375 0.11558594 8.51984375 0.11558594 9.81982422 0.12939453 C11.9202043 0.15299431 14.02043991 0.18886595 16.12060547 0.22705078 C16.12060547 5.17705078 16.12060547 10.12705078 16.12060547 15.22705078 C10.18060547 15.22705078 4.24060547 15.22705078 -1.87939453 15.22705078 C-1.87939453 14.89705078 -1.87939453 14.56705078 -1.87939453 14.22705078 C3.73060547 14.22705078 9.34060547 14.22705078 15.12060547 14.22705078 C15.12060547 9.93705078 15.12060547 5.64705078 15.12060547 1.22705078 C12.66126556 1.34074289 10.20381457 1.46747729 7.74560547 1.60205078 C6.69759766 1.64845703 6.69759766 1.64845703 5.62841797 1.69580078 C1.4187472 1.82204576 1.4187472 1.82204576 -1.87939453 4.22705078 C-2.33751128 6.19940411 -2.33751128 6.19940411 -2.50439453 8.35205078 C-2.62814453 9.63080078 -2.75189453 10.90955078 -2.87939453 12.22705078 C-3.20939453 12.22705078 -3.53939453 12.22705078 -3.87939453 12.22705078 C-3.93334931 10.60241236 -3.97216648 8.97726537 -4.00439453 7.35205078 C-4.02759766 6.44712891 -4.05080078 5.54220703 -4.07470703 4.60986328 C-3.82944043 1.61761069 -3.0904089 0.37335415 0 0 Z " fill="#D7D7D7" transform="translate(85.87939453125,240.77294921875)"/>
</svg>
